%TF.GenerationSoftware,KiCad,Pcbnew,(6.0.9-0)*%
%TF.CreationDate,2022-11-17T19:12:12+01:00*%
%TF.ProjectId,pwr-v1,7077722d-7631-42e6-9b69-6361645f7063,rev?*%
%TF.SameCoordinates,Original*%
%TF.FileFunction,Copper,L2,Bot*%
%TF.FilePolarity,Positive*%
%FSLAX46Y46*%
G04 Gerber Fmt 4.6, Leading zero omitted, Abs format (unit mm)*
G04 Created by KiCad (PCBNEW (6.0.9-0)) date 2022-11-17 19:12:12*
%MOMM*%
%LPD*%
G01*
G04 APERTURE LIST*
%TA.AperFunction,ComponentPad*%
%ADD10R,3.960000X1.980000*%
%TD*%
%TA.AperFunction,ComponentPad*%
%ADD11O,3.960000X1.980000*%
%TD*%
%TA.AperFunction,ComponentPad*%
%ADD12C,5.600000*%
%TD*%
%TA.AperFunction,ComponentPad*%
%ADD13O,2.000000X1.200000*%
%TD*%
%TA.AperFunction,ComponentPad*%
%ADD14O,1.800000X1.200000*%
%TD*%
%TA.AperFunction,ViaPad*%
%ADD15C,0.800000*%
%TD*%
%TA.AperFunction,Conductor*%
%ADD16C,1.270000*%
%TD*%
%TA.AperFunction,Conductor*%
%ADD17C,0.300000*%
%TD*%
%TA.AperFunction,Conductor*%
%ADD18C,0.254000*%
%TD*%
G04 APERTURE END LIST*
D10*
%TO.P,SW101,1,A*%
%TO.N,VBUS*%
X2362200Y-57250000D03*
D11*
%TO.P,SW101,2,B*%
%TO.N,VBUS_SW*%
X2362200Y-62250000D03*
%TD*%
D12*
%TO.P,REF\u002A\u002A,*%
%TO.N,GND*%
X305000000Y-84250000D03*
%TD*%
%TO.P,REF\u002A\u002A,*%
%TO.N,GND*%
X216666666Y-44250000D03*
%TD*%
%TO.P,REF\u002A\u002A,*%
%TO.N,GND*%
X40000000Y-44250000D03*
%TD*%
%TO.P,REF\u002A\u002A,*%
%TO.N,GND*%
X128333333Y-44250000D03*
%TD*%
%TO.P,REF\u002A\u002A,*%
%TO.N,GND*%
X40000000Y-84250000D03*
%TD*%
%TO.P,REF\u002A\u002A,*%
%TO.N,GND*%
X305000000Y-44250000D03*
%TD*%
D13*
%TO.P,U101,0,SH*%
%TO.N,unconnected-(U101-Pad0)*%
X5265748Y-44423863D03*
%TO.P,U101,1*%
%TO.N,N/C*%
X5265748Y-53074105D03*
D14*
%TO.P,U101,2*%
X1065850Y-53074105D03*
%TO.P,U101,3*%
X1065850Y-44423863D03*
%TD*%
D12*
%TO.P,REF\u002A\u002A,*%
%TO.N,GND*%
X216666666Y-84250000D03*
%TD*%
%TO.P,REF\u002A\u002A,*%
%TO.N,GND*%
X128333333Y-84250000D03*
%TD*%
D15*
%TO.N,-12V*%
X12500000Y-76200000D03*
X7100000Y-71000000D03*
%TO.N,GND*%
X25700000Y-45100000D03*
X7200000Y-52700000D03*
X26800000Y-59200000D03*
X8100000Y-85200000D03*
X307700000Y-74600000D03*
X7300000Y-44800000D03*
X10700000Y-44400000D03*
%TO.N,CC1*%
X8803921Y-46984968D03*
X8950000Y-55400000D03*
%TO.N,CFG1*%
X8800000Y-44400000D03*
X10700000Y-55200000D03*
%TD*%
D16*
%TO.N,-12V*%
X12300000Y-76200000D02*
X7100000Y-71000000D01*
X12500000Y-76200000D02*
X12300000Y-76200000D01*
D17*
%TO.N,CC1*%
X8950000Y-47131047D02*
X8950000Y-55400000D01*
X8803921Y-46984968D02*
X8950000Y-47131047D01*
D18*
%TO.N,CFG1*%
X10700000Y-46300000D02*
X8800000Y-44400000D01*
X10700000Y-55200000D02*
X10700000Y-46300000D01*
%TD*%
%TA.AperFunction,Conductor*%
%TO.N,GND*%
G36*
X304970042Y-39760004D02*
G01*
X304984850Y-39762310D01*
X304984855Y-39762310D01*
X304993724Y-39763691D01*
X305014183Y-39761016D01*
X305036007Y-39760072D01*
X305385965Y-39775352D01*
X305396913Y-39776310D01*
X305774498Y-39826019D01*
X305785307Y-39827926D01*
X306130528Y-39904459D01*
X306157114Y-39910353D01*
X306167731Y-39913198D01*
X306530939Y-40027718D01*
X306541254Y-40031471D01*
X306893123Y-40177220D01*
X306903067Y-40181858D01*
X307240867Y-40357705D01*
X307250387Y-40363201D01*
X307571574Y-40567820D01*
X307580578Y-40574124D01*
X307882716Y-40805962D01*
X307891137Y-40813028D01*
X308171914Y-41070314D01*
X308179686Y-41078086D01*
X308436972Y-41358863D01*
X308444038Y-41367284D01*
X308675876Y-41669422D01*
X308682180Y-41678426D01*
X308886799Y-41999613D01*
X308892294Y-42009132D01*
X309017611Y-42249862D01*
X309068138Y-42346924D01*
X309072780Y-42356877D01*
X309149020Y-42540937D01*
X309218526Y-42708739D01*
X309222285Y-42719068D01*
X309336802Y-43082268D01*
X309339647Y-43092885D01*
X309415546Y-43435243D01*
X309422073Y-43464685D01*
X309423981Y-43475502D01*
X309452497Y-43692110D01*
X309473690Y-43853086D01*
X309474648Y-43864035D01*
X309489483Y-44203794D01*
X309489603Y-44206552D01*
X309488223Y-44231429D01*
X309486309Y-44243724D01*
X309487473Y-44252626D01*
X309487473Y-44252628D01*
X309490436Y-44275283D01*
X309491500Y-44291621D01*
X309491500Y-84200633D01*
X309490000Y-84220018D01*
X309487690Y-84234851D01*
X309487690Y-84234855D01*
X309486309Y-84243724D01*
X309488984Y-84264183D01*
X309489928Y-84286011D01*
X309474648Y-84635964D01*
X309473690Y-84646914D01*
X309423982Y-85024490D01*
X309422074Y-85035307D01*
X309356363Y-85331713D01*
X309339647Y-85407114D01*
X309336802Y-85417731D01*
X309259293Y-85663559D01*
X309222285Y-85780932D01*
X309218529Y-85791254D01*
X309115439Y-86040136D01*
X309072784Y-86143114D01*
X309068142Y-86153067D01*
X308945409Y-86388836D01*
X308892295Y-86490867D01*
X308886799Y-86500387D01*
X308682180Y-86821574D01*
X308675876Y-86830578D01*
X308444038Y-87132716D01*
X308436972Y-87141137D01*
X308179686Y-87421914D01*
X308171914Y-87429686D01*
X307891137Y-87686972D01*
X307882716Y-87694038D01*
X307580578Y-87925876D01*
X307571574Y-87932180D01*
X307250387Y-88136799D01*
X307240868Y-88142294D01*
X306903067Y-88318142D01*
X306893123Y-88322780D01*
X306541254Y-88468529D01*
X306530939Y-88472282D01*
X306167732Y-88586802D01*
X306157115Y-88589647D01*
X305785307Y-88672074D01*
X305774498Y-88673981D01*
X305396914Y-88723690D01*
X305385965Y-88724648D01*
X305043446Y-88739603D01*
X305018571Y-88738223D01*
X305006276Y-88736309D01*
X304997374Y-88737473D01*
X304997371Y-88737473D01*
X304974792Y-88740426D01*
X304958424Y-88741490D01*
X634469Y-88666656D01*
X566353Y-88646637D01*
X519874Y-88592970D01*
X508500Y-88540656D01*
X508500Y-86766381D01*
X37849160Y-86766381D01*
X37849237Y-86767470D01*
X37851698Y-86771206D01*
X38125632Y-86981404D01*
X38131262Y-86985259D01*
X38431591Y-87167862D01*
X38437593Y-87171080D01*
X38755897Y-87320184D01*
X38762202Y-87322732D01*
X39094743Y-87436587D01*
X39101313Y-87438446D01*
X39444183Y-87515714D01*
X39450912Y-87516853D01*
X39800143Y-87556643D01*
X39806933Y-87557046D01*
X40158419Y-87558886D01*
X40165220Y-87558554D01*
X40514853Y-87522423D01*
X40521581Y-87521357D01*
X40865274Y-87447676D01*
X40871822Y-87445897D01*
X41205549Y-87335527D01*
X41211891Y-87333041D01*
X41531718Y-87187288D01*
X41537777Y-87184121D01*
X41839995Y-87004676D01*
X41845659Y-87000884D01*
X42126732Y-86789849D01*
X42131958Y-86785464D01*
X42141613Y-86776428D01*
X42147540Y-86766381D01*
X126182493Y-86766381D01*
X126182570Y-86767470D01*
X126185031Y-86771206D01*
X126458965Y-86981404D01*
X126464595Y-86985259D01*
X126764924Y-87167862D01*
X126770926Y-87171080D01*
X127089230Y-87320184D01*
X127095535Y-87322732D01*
X127428076Y-87436587D01*
X127434646Y-87438446D01*
X127777516Y-87515714D01*
X127784245Y-87516853D01*
X128133476Y-87556643D01*
X128140266Y-87557046D01*
X128491752Y-87558886D01*
X128498553Y-87558554D01*
X128848186Y-87522423D01*
X128854914Y-87521357D01*
X129198607Y-87447676D01*
X129205155Y-87445897D01*
X129538882Y-87335527D01*
X129545224Y-87333041D01*
X129865051Y-87187288D01*
X129871110Y-87184121D01*
X130173328Y-87004676D01*
X130178992Y-87000884D01*
X130460065Y-86789849D01*
X130465291Y-86785464D01*
X130474946Y-86776428D01*
X130480873Y-86766381D01*
X214515826Y-86766381D01*
X214515903Y-86767470D01*
X214518364Y-86771206D01*
X214792298Y-86981404D01*
X214797928Y-86985259D01*
X215098257Y-87167862D01*
X215104259Y-87171080D01*
X215422563Y-87320184D01*
X215428868Y-87322732D01*
X215761409Y-87436587D01*
X215767979Y-87438446D01*
X216110849Y-87515714D01*
X216117578Y-87516853D01*
X216466809Y-87556643D01*
X216473599Y-87557046D01*
X216825085Y-87558886D01*
X216831886Y-87558554D01*
X217181519Y-87522423D01*
X217188247Y-87521357D01*
X217531940Y-87447676D01*
X217538488Y-87445897D01*
X217872215Y-87335527D01*
X217878557Y-87333041D01*
X218198384Y-87187288D01*
X218204443Y-87184121D01*
X218506661Y-87004676D01*
X218512325Y-87000884D01*
X218793398Y-86789849D01*
X218798624Y-86785464D01*
X218808279Y-86776428D01*
X218814206Y-86766381D01*
X302849160Y-86766381D01*
X302849237Y-86767470D01*
X302851698Y-86771206D01*
X303125632Y-86981404D01*
X303131262Y-86985259D01*
X303431591Y-87167862D01*
X303437593Y-87171080D01*
X303755897Y-87320184D01*
X303762202Y-87322732D01*
X304094743Y-87436587D01*
X304101313Y-87438446D01*
X304444183Y-87515714D01*
X304450912Y-87516853D01*
X304800143Y-87556643D01*
X304806933Y-87557046D01*
X305158419Y-87558886D01*
X305165220Y-87558554D01*
X305514853Y-87522423D01*
X305521581Y-87521357D01*
X305865274Y-87447676D01*
X305871822Y-87445897D01*
X306205549Y-87335527D01*
X306211891Y-87333041D01*
X306531718Y-87187288D01*
X306537777Y-87184121D01*
X306839995Y-87004676D01*
X306845659Y-87000884D01*
X307126732Y-86789849D01*
X307131958Y-86785464D01*
X307141613Y-86776428D01*
X307149682Y-86762750D01*
X307149654Y-86762024D01*
X307144512Y-86753723D01*
X305012810Y-84622020D01*
X304998869Y-84614408D01*
X304997034Y-84614539D01*
X304990420Y-84618790D01*
X302856774Y-86752437D01*
X302849160Y-86766381D01*
X218814206Y-86766381D01*
X218816348Y-86762750D01*
X218816320Y-86762024D01*
X218811178Y-86753723D01*
X216679476Y-84622020D01*
X216665535Y-84614408D01*
X216663700Y-84614539D01*
X216657086Y-84618790D01*
X214523440Y-86752437D01*
X214515826Y-86766381D01*
X130480873Y-86766381D01*
X130483015Y-86762750D01*
X130482987Y-86762024D01*
X130477845Y-86753723D01*
X128346143Y-84622020D01*
X128332202Y-84614408D01*
X128330367Y-84614539D01*
X128323753Y-84618790D01*
X126190107Y-86752437D01*
X126182493Y-86766381D01*
X42147540Y-86766381D01*
X42149682Y-86762750D01*
X42149654Y-86762024D01*
X42144512Y-86753723D01*
X40012810Y-84622020D01*
X39998869Y-84614408D01*
X39997034Y-84614539D01*
X39990420Y-84618790D01*
X37856774Y-86752437D01*
X37849160Y-86766381D01*
X508500Y-86766381D01*
X508500Y-84241832D01*
X36687333Y-84241832D01*
X36705117Y-84592893D01*
X36705827Y-84599649D01*
X36761420Y-84946723D01*
X36762859Y-84953378D01*
X36855608Y-85292410D01*
X36857757Y-85298871D01*
X36986581Y-85625912D01*
X36989412Y-85632095D01*
X37152803Y-85943310D01*
X37156286Y-85949152D01*
X37352330Y-86240896D01*
X37356433Y-86246340D01*
X37476425Y-86388836D01*
X37489164Y-86397279D01*
X37499608Y-86391181D01*
X39627980Y-84262810D01*
X39634357Y-84251131D01*
X40364408Y-84251131D01*
X40364539Y-84252966D01*
X40368790Y-84259580D01*
X42499009Y-86389798D01*
X42512605Y-86397223D01*
X42522218Y-86390522D01*
X42622518Y-86273912D01*
X42626676Y-86268514D01*
X42825762Y-85978840D01*
X42829310Y-85973029D01*
X42995942Y-85663559D01*
X42998849Y-85657381D01*
X43131090Y-85331713D01*
X43133304Y-85325283D01*
X43229598Y-84987237D01*
X43231105Y-84980607D01*
X43290332Y-84634118D01*
X43291112Y-84627378D01*
X43312668Y-84274925D01*
X43312784Y-84271323D01*
X43312853Y-84251819D01*
X43312761Y-84248194D01*
X43312416Y-84241832D01*
X125020666Y-84241832D01*
X125038450Y-84592893D01*
X125039160Y-84599649D01*
X125094753Y-84946723D01*
X125096192Y-84953378D01*
X125188941Y-85292410D01*
X125191090Y-85298871D01*
X125319914Y-85625912D01*
X125322745Y-85632095D01*
X125486136Y-85943310D01*
X125489619Y-85949152D01*
X125685663Y-86240896D01*
X125689766Y-86246340D01*
X125809758Y-86388836D01*
X125822497Y-86397279D01*
X125832941Y-86391181D01*
X127961313Y-84262810D01*
X127967690Y-84251131D01*
X128697741Y-84251131D01*
X128697872Y-84252966D01*
X128702123Y-84259580D01*
X130832342Y-86389798D01*
X130845938Y-86397223D01*
X130855551Y-86390522D01*
X130955851Y-86273912D01*
X130960009Y-86268514D01*
X131159095Y-85978840D01*
X131162643Y-85973029D01*
X131329275Y-85663559D01*
X131332182Y-85657381D01*
X131464423Y-85331713D01*
X131466637Y-85325283D01*
X131562931Y-84987237D01*
X131564438Y-84980607D01*
X131623665Y-84634118D01*
X131624445Y-84627378D01*
X131646001Y-84274925D01*
X131646117Y-84271323D01*
X131646186Y-84251819D01*
X131646094Y-84248194D01*
X131645749Y-84241832D01*
X213353999Y-84241832D01*
X213371783Y-84592893D01*
X213372493Y-84599649D01*
X213428086Y-84946723D01*
X213429525Y-84953378D01*
X213522274Y-85292410D01*
X213524423Y-85298871D01*
X213653247Y-85625912D01*
X213656078Y-85632095D01*
X213819469Y-85943310D01*
X213822952Y-85949152D01*
X214018996Y-86240896D01*
X214023099Y-86246340D01*
X214143091Y-86388836D01*
X214155830Y-86397279D01*
X214166274Y-86391181D01*
X216294646Y-84262810D01*
X216301023Y-84251131D01*
X217031074Y-84251131D01*
X217031205Y-84252966D01*
X217035456Y-84259580D01*
X219165675Y-86389798D01*
X219179271Y-86397223D01*
X219188884Y-86390522D01*
X219289184Y-86273912D01*
X219293342Y-86268514D01*
X219492428Y-85978840D01*
X219495976Y-85973029D01*
X219662608Y-85663559D01*
X219665515Y-85657381D01*
X219797756Y-85331713D01*
X219799970Y-85325283D01*
X219896264Y-84987237D01*
X219897771Y-84980607D01*
X219956998Y-84634118D01*
X219957778Y-84627378D01*
X219979334Y-84274925D01*
X219979450Y-84271323D01*
X219979519Y-84251819D01*
X219979427Y-84248194D01*
X219979082Y-84241832D01*
X301687333Y-84241832D01*
X301705117Y-84592893D01*
X301705827Y-84599649D01*
X301761420Y-84946723D01*
X301762859Y-84953378D01*
X301855608Y-85292410D01*
X301857757Y-85298871D01*
X301986581Y-85625912D01*
X301989412Y-85632095D01*
X302152803Y-85943310D01*
X302156286Y-85949152D01*
X302352330Y-86240896D01*
X302356433Y-86246340D01*
X302476425Y-86388836D01*
X302489164Y-86397279D01*
X302499608Y-86391181D01*
X304627980Y-84262810D01*
X304634357Y-84251131D01*
X305364408Y-84251131D01*
X305364539Y-84252966D01*
X305368790Y-84259580D01*
X307499009Y-86389798D01*
X307512605Y-86397223D01*
X307522218Y-86390522D01*
X307622518Y-86273912D01*
X307626676Y-86268514D01*
X307825762Y-85978840D01*
X307829310Y-85973029D01*
X307995942Y-85663559D01*
X307998849Y-85657381D01*
X308131090Y-85331713D01*
X308133304Y-85325283D01*
X308229598Y-84987237D01*
X308231105Y-84980607D01*
X308290332Y-84634118D01*
X308291112Y-84627378D01*
X308312668Y-84274925D01*
X308312784Y-84271323D01*
X308312853Y-84251819D01*
X308312761Y-84248194D01*
X308293666Y-83895615D01*
X308292931Y-83888849D01*
X308236130Y-83541985D01*
X308234663Y-83535313D01*
X308140736Y-83196627D01*
X308138562Y-83190163D01*
X308008598Y-82863578D01*
X308005742Y-82857398D01*
X307841269Y-82546763D01*
X307837769Y-82540937D01*
X307640697Y-82249862D01*
X307636590Y-82244453D01*
X307523565Y-82111179D01*
X307510740Y-82102743D01*
X307500416Y-82108795D01*
X305372020Y-84237190D01*
X305364408Y-84251131D01*
X304634357Y-84251131D01*
X304635592Y-84248869D01*
X304635461Y-84247034D01*
X304631210Y-84240420D01*
X302500992Y-82110203D01*
X302487455Y-82102811D01*
X302477753Y-82109599D01*
X302370430Y-82235257D01*
X302366296Y-82240664D01*
X302168215Y-82531041D01*
X302164697Y-82536851D01*
X301999134Y-82846922D01*
X301996259Y-82853087D01*
X301865155Y-83179218D01*
X301862962Y-83185658D01*
X301767846Y-83524044D01*
X301766363Y-83530679D01*
X301708350Y-83877354D01*
X301707591Y-83884126D01*
X301687357Y-84235037D01*
X301687333Y-84241832D01*
X219979082Y-84241832D01*
X219960332Y-83895615D01*
X219959597Y-83888849D01*
X219902796Y-83541985D01*
X219901329Y-83535313D01*
X219807402Y-83196627D01*
X219805228Y-83190163D01*
X219675264Y-82863578D01*
X219672408Y-82857398D01*
X219507935Y-82546763D01*
X219504435Y-82540937D01*
X219307363Y-82249862D01*
X219303256Y-82244453D01*
X219190231Y-82111179D01*
X219177406Y-82102743D01*
X219167082Y-82108795D01*
X217038686Y-84237190D01*
X217031074Y-84251131D01*
X216301023Y-84251131D01*
X216302258Y-84248869D01*
X216302127Y-84247034D01*
X216297876Y-84240420D01*
X214167658Y-82110203D01*
X214154121Y-82102811D01*
X214144419Y-82109599D01*
X214037096Y-82235257D01*
X214032962Y-82240664D01*
X213834881Y-82531041D01*
X213831363Y-82536851D01*
X213665800Y-82846922D01*
X213662925Y-82853087D01*
X213531821Y-83179218D01*
X213529628Y-83185658D01*
X213434512Y-83524044D01*
X213433029Y-83530679D01*
X213375016Y-83877354D01*
X213374257Y-83884126D01*
X213354023Y-84235037D01*
X213353999Y-84241832D01*
X131645749Y-84241832D01*
X131626999Y-83895615D01*
X131626264Y-83888849D01*
X131569463Y-83541985D01*
X131567996Y-83535313D01*
X131474069Y-83196627D01*
X131471895Y-83190163D01*
X131341931Y-82863578D01*
X131339075Y-82857398D01*
X131174602Y-82546763D01*
X131171102Y-82540937D01*
X130974030Y-82249862D01*
X130969923Y-82244453D01*
X130856898Y-82111179D01*
X130844073Y-82102743D01*
X130833749Y-82108795D01*
X128705353Y-84237190D01*
X128697741Y-84251131D01*
X127967690Y-84251131D01*
X127968925Y-84248869D01*
X127968794Y-84247034D01*
X127964543Y-84240420D01*
X125834325Y-82110203D01*
X125820788Y-82102811D01*
X125811086Y-82109599D01*
X125703763Y-82235257D01*
X125699629Y-82240664D01*
X125501548Y-82531041D01*
X125498030Y-82536851D01*
X125332467Y-82846922D01*
X125329592Y-82853087D01*
X125198488Y-83179218D01*
X125196295Y-83185658D01*
X125101179Y-83524044D01*
X125099696Y-83530679D01*
X125041683Y-83877354D01*
X125040924Y-83884126D01*
X125020690Y-84235037D01*
X125020666Y-84241832D01*
X43312416Y-84241832D01*
X43293666Y-83895615D01*
X43292931Y-83888849D01*
X43236130Y-83541985D01*
X43234663Y-83535313D01*
X43140736Y-83196627D01*
X43138562Y-83190163D01*
X43008598Y-82863578D01*
X43005742Y-82857398D01*
X42841269Y-82546763D01*
X42837769Y-82540937D01*
X42640697Y-82249862D01*
X42636590Y-82244453D01*
X42523565Y-82111179D01*
X42510740Y-82102743D01*
X42500416Y-82108795D01*
X40372020Y-84237190D01*
X40364408Y-84251131D01*
X39634357Y-84251131D01*
X39635592Y-84248869D01*
X39635461Y-84247034D01*
X39631210Y-84240420D01*
X37500992Y-82110203D01*
X37487455Y-82102811D01*
X37477753Y-82109599D01*
X37370430Y-82235257D01*
X37366296Y-82240664D01*
X37168215Y-82531041D01*
X37164697Y-82536851D01*
X36999134Y-82846922D01*
X36996259Y-82853087D01*
X36865155Y-83179218D01*
X36862962Y-83185658D01*
X36767846Y-83524044D01*
X36766363Y-83530679D01*
X36708350Y-83877354D01*
X36707591Y-83884126D01*
X36687357Y-84235037D01*
X36687333Y-84241832D01*
X508500Y-84241832D01*
X508500Y-81736862D01*
X37849950Y-81736862D01*
X37849986Y-81737704D01*
X37855037Y-81745826D01*
X39987190Y-83877980D01*
X40001131Y-83885592D01*
X40002966Y-83885461D01*
X40009580Y-83881210D01*
X42142798Y-81747991D01*
X42148875Y-81736862D01*
X126183283Y-81736862D01*
X126183319Y-81737704D01*
X126188370Y-81745826D01*
X128320523Y-83877980D01*
X128334464Y-83885592D01*
X128336299Y-83885461D01*
X128342913Y-83881210D01*
X130476131Y-81747991D01*
X130482208Y-81736862D01*
X214516616Y-81736862D01*
X214516652Y-81737704D01*
X214521703Y-81745826D01*
X216653856Y-83877980D01*
X216667797Y-83885592D01*
X216669632Y-83885461D01*
X216676246Y-83881210D01*
X218809464Y-81747991D01*
X218815541Y-81736862D01*
X302849950Y-81736862D01*
X302849986Y-81737704D01*
X302855037Y-81745826D01*
X304987190Y-83877980D01*
X305001131Y-83885592D01*
X305002966Y-83885461D01*
X305009580Y-83881210D01*
X307142798Y-81747991D01*
X307150412Y-81734047D01*
X307150344Y-81733089D01*
X307145836Y-81726272D01*
X307144418Y-81725065D01*
X306864813Y-81512064D01*
X306859187Y-81508240D01*
X306558214Y-81326681D01*
X306552202Y-81323484D01*
X306233370Y-81175487D01*
X306227070Y-81172967D01*
X305894129Y-81060273D01*
X305887551Y-81058437D01*
X305544417Y-80982367D01*
X305537678Y-80981251D01*
X305188310Y-80942680D01*
X305181529Y-80942301D01*
X304830015Y-80941687D01*
X304823242Y-80942042D01*
X304473720Y-80979395D01*
X304467010Y-80980482D01*
X304123586Y-81055361D01*
X304117011Y-81057172D01*
X303783683Y-81168702D01*
X303777361Y-81171205D01*
X303458034Y-81318079D01*
X303451991Y-81321265D01*
X303150401Y-81501763D01*
X303144755Y-81505571D01*
X302864408Y-81717596D01*
X302859211Y-81721987D01*
X302857972Y-81723155D01*
X302849950Y-81736862D01*
X218815541Y-81736862D01*
X218817078Y-81734047D01*
X218817010Y-81733089D01*
X218812502Y-81726272D01*
X218811084Y-81725065D01*
X218531479Y-81512064D01*
X218525853Y-81508240D01*
X218224880Y-81326681D01*
X218218868Y-81323484D01*
X217900036Y-81175487D01*
X217893736Y-81172967D01*
X217560795Y-81060273D01*
X217554217Y-81058437D01*
X217211083Y-80982367D01*
X217204344Y-80981251D01*
X216854976Y-80942680D01*
X216848195Y-80942301D01*
X216496681Y-80941687D01*
X216489908Y-80942042D01*
X216140386Y-80979395D01*
X216133676Y-80980482D01*
X215790252Y-81055361D01*
X215783677Y-81057172D01*
X215450349Y-81168702D01*
X215444027Y-81171205D01*
X215124700Y-81318079D01*
X215118657Y-81321265D01*
X214817067Y-81501763D01*
X214811421Y-81505571D01*
X214531074Y-81717596D01*
X214525877Y-81721987D01*
X214524638Y-81723155D01*
X214516616Y-81736862D01*
X130482208Y-81736862D01*
X130483745Y-81734047D01*
X130483677Y-81733089D01*
X130479169Y-81726272D01*
X130477751Y-81725065D01*
X130198146Y-81512064D01*
X130192520Y-81508240D01*
X129891547Y-81326681D01*
X129885535Y-81323484D01*
X129566703Y-81175487D01*
X129560403Y-81172967D01*
X129227462Y-81060273D01*
X129220884Y-81058437D01*
X128877750Y-80982367D01*
X128871011Y-80981251D01*
X128521643Y-80942680D01*
X128514862Y-80942301D01*
X128163348Y-80941687D01*
X128156575Y-80942042D01*
X127807053Y-80979395D01*
X127800343Y-80980482D01*
X127456919Y-81055361D01*
X127450344Y-81057172D01*
X127117016Y-81168702D01*
X127110694Y-81171205D01*
X126791367Y-81318079D01*
X126785324Y-81321265D01*
X126483734Y-81501763D01*
X126478088Y-81505571D01*
X126197741Y-81717596D01*
X126192544Y-81721987D01*
X126191305Y-81723155D01*
X126183283Y-81736862D01*
X42148875Y-81736862D01*
X42150412Y-81734047D01*
X42150344Y-81733089D01*
X42145836Y-81726272D01*
X42144418Y-81725065D01*
X41864813Y-81512064D01*
X41859187Y-81508240D01*
X41558214Y-81326681D01*
X41552202Y-81323484D01*
X41233370Y-81175487D01*
X41227070Y-81172967D01*
X40894129Y-81060273D01*
X40887551Y-81058437D01*
X40544417Y-80982367D01*
X40537678Y-80981251D01*
X40188310Y-80942680D01*
X40181529Y-80942301D01*
X39830015Y-80941687D01*
X39823242Y-80942042D01*
X39473720Y-80979395D01*
X39467010Y-80980482D01*
X39123586Y-81055361D01*
X39117011Y-81057172D01*
X38783683Y-81168702D01*
X38777361Y-81171205D01*
X38458034Y-81318079D01*
X38451991Y-81321265D01*
X38150401Y-81501763D01*
X38144755Y-81505571D01*
X37864408Y-81717596D01*
X37859211Y-81721987D01*
X37857972Y-81723155D01*
X37849950Y-81736862D01*
X508500Y-81736862D01*
X508500Y-71030061D01*
X5951994Y-71030061D01*
X5976697Y-71238765D01*
X6039018Y-71439473D01*
X6136871Y-71625463D01*
X6243251Y-71760404D01*
X11461151Y-76978304D01*
X11466788Y-76984322D01*
X11509494Y-77033019D01*
X11514029Y-77036594D01*
X11514030Y-77036595D01*
X11578982Y-77087798D01*
X11581547Y-77089876D01*
X11645100Y-77142734D01*
X11645105Y-77142738D01*
X11649540Y-77146426D01*
X11654574Y-77149245D01*
X11657584Y-77151314D01*
X11666854Y-77157508D01*
X11669999Y-77159551D01*
X11674537Y-77163128D01*
X11679645Y-77165816D01*
X11679649Y-77165818D01*
X11752816Y-77204312D01*
X11755706Y-77205882D01*
X11832904Y-77249115D01*
X11838376Y-77250972D01*
X11841776Y-77252486D01*
X11851987Y-77256873D01*
X11855421Y-77258295D01*
X11860527Y-77260982D01*
X11866041Y-77262694D01*
X11866043Y-77262695D01*
X11944999Y-77287212D01*
X11948135Y-77288231D01*
X12001280Y-77306271D01*
X12031912Y-77316669D01*
X12037625Y-77317498D01*
X12041138Y-77318341D01*
X12052151Y-77320833D01*
X12055718Y-77321591D01*
X12061234Y-77323304D01*
X12066962Y-77323982D01*
X12066967Y-77323983D01*
X12119182Y-77330163D01*
X12149099Y-77333704D01*
X12152322Y-77334128D01*
X12188419Y-77339362D01*
X12234184Y-77345998D01*
X12234189Y-77345998D01*
X12239898Y-77346826D01*
X12322069Y-77343597D01*
X12327017Y-77343500D01*
X12553316Y-77343500D01*
X12709279Y-77329169D01*
X12714841Y-77327600D01*
X12714843Y-77327600D01*
X12858047Y-77287212D01*
X12911549Y-77272123D01*
X13100037Y-77179171D01*
X13129048Y-77157508D01*
X13263805Y-77056880D01*
X13263806Y-77056879D01*
X13268429Y-77053427D01*
X13272345Y-77049191D01*
X13407167Y-76903341D01*
X13407169Y-76903338D01*
X13411086Y-76899101D01*
X13523231Y-76721362D01*
X13601108Y-76526163D01*
X13602233Y-76520506D01*
X13602235Y-76520500D01*
X13640981Y-76325707D01*
X13640981Y-76325705D01*
X13642108Y-76320040D01*
X13644859Y-76109898D01*
X13609268Y-75902772D01*
X13536528Y-75705601D01*
X13429074Y-75524988D01*
X13290506Y-75366981D01*
X13125463Y-75236872D01*
X13120347Y-75234181D01*
X13120345Y-75234179D01*
X12944590Y-75141710D01*
X12944588Y-75141709D01*
X12939473Y-75139018D01*
X12848378Y-75110732D01*
X12796648Y-75079495D01*
X7870876Y-70153723D01*
X7750460Y-70053574D01*
X7567096Y-69950885D01*
X7561629Y-69949029D01*
X7561624Y-69949027D01*
X7373557Y-69885187D01*
X7373552Y-69885186D01*
X7368088Y-69883331D01*
X7160103Y-69853175D01*
X7019433Y-69858702D01*
X6955877Y-69861199D01*
X6955875Y-69861199D01*
X6950104Y-69861426D01*
X6944473Y-69862700D01*
X6944467Y-69862701D01*
X6750755Y-69906534D01*
X6745125Y-69907808D01*
X6739825Y-69910085D01*
X6739822Y-69910086D01*
X6557340Y-69988486D01*
X6552031Y-69990767D01*
X6377289Y-70107527D01*
X6226751Y-70254174D01*
X6105457Y-70425801D01*
X6017471Y-70616657D01*
X5965740Y-70820351D01*
X5951994Y-71030061D01*
X508500Y-71030061D01*
X508500Y-63698642D01*
X528502Y-63630521D01*
X582158Y-63584028D01*
X652432Y-63573924D01*
X687548Y-63584353D01*
X852997Y-63661152D01*
X857975Y-63662532D01*
X857979Y-63662534D01*
X1085474Y-63725623D01*
X1090447Y-63727002D01*
X1197064Y-63738396D01*
X1288271Y-63748144D01*
X1288279Y-63748144D01*
X1291606Y-63748500D01*
X3414669Y-63748500D01*
X3417242Y-63748288D01*
X3417253Y-63748288D01*
X3592632Y-63733869D01*
X3592638Y-63733868D01*
X3597783Y-63733445D01*
X3717277Y-63703430D01*
X3831759Y-63674675D01*
X3831763Y-63674674D01*
X3836770Y-63673416D01*
X3841503Y-63671358D01*
X3841506Y-63671357D01*
X4058007Y-63577220D01*
X4058010Y-63577218D01*
X4062744Y-63575160D01*
X4067078Y-63572356D01*
X4067082Y-63572354D01*
X4265292Y-63444126D01*
X4265298Y-63444121D01*
X4269636Y-63441315D01*
X4451890Y-63275477D01*
X4455089Y-63271426D01*
X4455093Y-63271422D01*
X4601405Y-63086157D01*
X4604610Y-63082099D01*
X4723697Y-62866375D01*
X4805950Y-62634097D01*
X4849163Y-62391505D01*
X4852173Y-62145112D01*
X4814901Y-61901536D01*
X4738347Y-61667318D01*
X4624567Y-61448748D01*
X4476616Y-61251697D01*
X4298469Y-61081455D01*
X4294196Y-61078540D01*
X4099189Y-60945515D01*
X4099184Y-60945512D01*
X4094909Y-60942596D01*
X4090220Y-60940420D01*
X4090214Y-60940416D01*
X3876094Y-60841025D01*
X3876089Y-60841023D01*
X3871403Y-60838848D01*
X3866425Y-60837468D01*
X3866421Y-60837466D01*
X3638926Y-60774377D01*
X3638925Y-60774377D01*
X3633953Y-60772998D01*
X3527336Y-60761604D01*
X3436129Y-60751856D01*
X3436121Y-60751856D01*
X3432794Y-60751500D01*
X1309731Y-60751500D01*
X1307158Y-60751712D01*
X1307147Y-60751712D01*
X1131768Y-60766131D01*
X1131762Y-60766132D01*
X1126617Y-60766555D01*
X1007123Y-60796570D01*
X892641Y-60825325D01*
X892637Y-60825326D01*
X887630Y-60826584D01*
X882897Y-60828642D01*
X882894Y-60828643D01*
X684742Y-60914802D01*
X614296Y-60923622D01*
X550264Y-60892955D01*
X512976Y-60832538D01*
X508500Y-60799252D01*
X508500Y-58874500D01*
X528502Y-58806379D01*
X582158Y-58759886D01*
X634500Y-58748500D01*
X4390334Y-58748500D01*
X4452516Y-58741745D01*
X4588905Y-58690615D01*
X4705461Y-58603261D01*
X4792815Y-58486705D01*
X4843945Y-58350316D01*
X4850700Y-58288134D01*
X4850700Y-56211866D01*
X4843945Y-56149684D01*
X4792815Y-56013295D01*
X4705461Y-55896739D01*
X4588905Y-55809385D01*
X4452516Y-55758255D01*
X4390334Y-55751500D01*
X634500Y-55751500D01*
X566379Y-55731498D01*
X519886Y-55677842D01*
X508500Y-55625500D01*
X508500Y-54306175D01*
X528502Y-54238054D01*
X582158Y-54191561D01*
X649692Y-54181094D01*
X652735Y-54181464D01*
X657187Y-54182333D01*
X662749Y-54182605D01*
X1418696Y-54182605D01*
X1576416Y-54167557D01*
X1779384Y-54108013D01*
X1862961Y-54064968D01*
X1962099Y-54013909D01*
X1962102Y-54013907D01*
X1967430Y-54011163D01*
X2133770Y-53880501D01*
X2137702Y-53875970D01*
X2137705Y-53875967D01*
X2268471Y-53725272D01*
X2272402Y-53720742D01*
X2275402Y-53715556D01*
X2275405Y-53715552D01*
X2375317Y-53542847D01*
X2378323Y-53537651D01*
X2447711Y-53337834D01*
X2478063Y-53128501D01*
X2473027Y-53019709D01*
X3753535Y-53019709D01*
X3763315Y-53231004D01*
X3812873Y-53436639D01*
X3815355Y-53442097D01*
X3815356Y-53442101D01*
X3858801Y-53537651D01*
X3900422Y-53629192D01*
X4022802Y-53801716D01*
X4175598Y-53947986D01*
X4353296Y-54062725D01*
X4358862Y-54064968D01*
X4543916Y-54139547D01*
X4543919Y-54139548D01*
X4549485Y-54141791D01*
X4757085Y-54182333D01*
X4762647Y-54182605D01*
X5718594Y-54182605D01*
X5876314Y-54167557D01*
X6079282Y-54108013D01*
X6162859Y-54064968D01*
X6261997Y-54013909D01*
X6262000Y-54013907D01*
X6267328Y-54011163D01*
X6433668Y-53880501D01*
X6437600Y-53875970D01*
X6437603Y-53875967D01*
X6568369Y-53725272D01*
X6572300Y-53720742D01*
X6575300Y-53715556D01*
X6575303Y-53715552D01*
X6675215Y-53542847D01*
X6678221Y-53537651D01*
X6747609Y-53337834D01*
X6777961Y-53128501D01*
X6768181Y-52917206D01*
X6718623Y-52711571D01*
X6675273Y-52616227D01*
X6633554Y-52524473D01*
X6631074Y-52519018D01*
X6508694Y-52346494D01*
X6355898Y-52200224D01*
X6178200Y-52085485D01*
X6118102Y-52061265D01*
X5987580Y-52008663D01*
X5987577Y-52008662D01*
X5982011Y-52006419D01*
X5774411Y-51965877D01*
X5768849Y-51965605D01*
X5757147Y-51965605D01*
X5689026Y-51945603D01*
X5642533Y-51891947D01*
X5632429Y-51821673D01*
X5633900Y-51813409D01*
X5647754Y-51748227D01*
X5649127Y-51741768D01*
X5649127Y-51556048D01*
X5610514Y-51374386D01*
X5534975Y-51204722D01*
X5425811Y-51054470D01*
X5287794Y-50930199D01*
X5126955Y-50837339D01*
X5052494Y-50813145D01*
X4956603Y-50781988D01*
X4956601Y-50781988D01*
X4950324Y-50779948D01*
X4943761Y-50779258D01*
X4943760Y-50779258D01*
X4919564Y-50776715D01*
X4811928Y-50765402D01*
X4719314Y-50765402D01*
X4611678Y-50776715D01*
X4587482Y-50779258D01*
X4587481Y-50779258D01*
X4580918Y-50779948D01*
X4574641Y-50781988D01*
X4574639Y-50781988D01*
X4478748Y-50813145D01*
X4404287Y-50837339D01*
X4243448Y-50930199D01*
X4105431Y-51054470D01*
X3996267Y-51204721D01*
X3920728Y-51374386D01*
X3882115Y-51556048D01*
X3882115Y-51741768D01*
X3883487Y-51748221D01*
X3883487Y-51748225D01*
X3899099Y-51821673D01*
X3920728Y-51923430D01*
X3923413Y-51929460D01*
X3923413Y-51929461D01*
X3991881Y-52083242D01*
X3996267Y-52093094D01*
X4000147Y-52098435D01*
X4000148Y-52098436D01*
X4052743Y-52170827D01*
X4076602Y-52237695D01*
X4060521Y-52306847D01*
X4045977Y-52327462D01*
X3959196Y-52427468D01*
X3956196Y-52432654D01*
X3956193Y-52432658D01*
X3909060Y-52514131D01*
X3853275Y-52610559D01*
X3783887Y-52810376D01*
X3753535Y-53019709D01*
X2473027Y-53019709D01*
X2468283Y-52917206D01*
X2418725Y-52711571D01*
X2375375Y-52616227D01*
X2333656Y-52524473D01*
X2331176Y-52519018D01*
X2208796Y-52346494D01*
X2056000Y-52200224D01*
X1878302Y-52085485D01*
X1818204Y-52061265D01*
X1687682Y-52008663D01*
X1687679Y-52008662D01*
X1682113Y-52006419D01*
X1474513Y-51965877D01*
X1468951Y-51965605D01*
X713004Y-51965605D01*
X676550Y-51969083D01*
X646467Y-51971953D01*
X576754Y-51958512D01*
X525376Y-51909514D01*
X508500Y-51846523D01*
X508500Y-45655933D01*
X528502Y-45587812D01*
X582158Y-45541319D01*
X649692Y-45530852D01*
X652735Y-45531222D01*
X657187Y-45532091D01*
X662749Y-45532363D01*
X1418696Y-45532363D01*
X1576416Y-45517315D01*
X1779384Y-45457771D01*
X1882092Y-45404873D01*
X1962099Y-45363667D01*
X1962102Y-45363665D01*
X1967430Y-45360921D01*
X2133770Y-45230259D01*
X2137702Y-45225728D01*
X2137705Y-45225725D01*
X2268471Y-45075030D01*
X2272402Y-45070500D01*
X2275402Y-45065314D01*
X2275405Y-45065310D01*
X2375317Y-44892605D01*
X2378323Y-44887409D01*
X2447711Y-44687592D01*
X2448572Y-44681655D01*
X2477202Y-44484199D01*
X2477202Y-44484196D01*
X2478063Y-44478259D01*
X2473027Y-44369467D01*
X3753535Y-44369467D01*
X3763315Y-44580762D01*
X3764719Y-44586587D01*
X3764719Y-44586588D01*
X3810676Y-44777279D01*
X3812873Y-44786397D01*
X3815355Y-44791855D01*
X3815356Y-44791859D01*
X3858801Y-44887409D01*
X3900422Y-44978950D01*
X4022802Y-45151474D01*
X4027129Y-45155616D01*
X4036266Y-45164363D01*
X4071642Y-45225918D01*
X4068123Y-45296828D01*
X4051071Y-45329442D01*
X3996267Y-45404873D01*
X3993583Y-45410902D01*
X3993581Y-45410905D01*
X3939505Y-45532363D01*
X3920728Y-45574538D01*
X3919355Y-45580998D01*
X3897990Y-45681515D01*
X3882115Y-45756200D01*
X3882115Y-45941920D01*
X3883487Y-45948373D01*
X3883487Y-45948377D01*
X3892635Y-45991412D01*
X3920728Y-46123582D01*
X3923413Y-46129612D01*
X3923413Y-46129613D01*
X3985256Y-46268514D01*
X3996267Y-46293246D01*
X4000147Y-46298587D01*
X4000148Y-46298588D01*
X4067421Y-46391181D01*
X4105431Y-46443498D01*
X4243448Y-46567769D01*
X4404287Y-46660629D01*
X4410573Y-46662671D01*
X4410572Y-46662671D01*
X4574639Y-46715980D01*
X4574641Y-46715980D01*
X4580918Y-46718020D01*
X4587481Y-46718710D01*
X4587482Y-46718710D01*
X4611678Y-46721253D01*
X4719314Y-46732566D01*
X4811928Y-46732566D01*
X4919564Y-46721253D01*
X4943760Y-46718710D01*
X4943761Y-46718710D01*
X4950324Y-46718020D01*
X4956601Y-46715980D01*
X4956603Y-46715980D01*
X5120670Y-46662671D01*
X5120669Y-46662671D01*
X5126955Y-46660629D01*
X5287794Y-46567769D01*
X5425811Y-46443498D01*
X5464301Y-46390522D01*
X5531094Y-46298589D01*
X5531095Y-46298588D01*
X5534975Y-46293247D01*
X5543584Y-46273912D01*
X5607827Y-46129618D01*
X5607829Y-46129613D01*
X5610514Y-46123582D01*
X5628540Y-46038777D01*
X5647755Y-45948377D01*
X5647755Y-45948373D01*
X5649127Y-45941920D01*
X5649127Y-45756200D01*
X5633252Y-45681514D01*
X5638654Y-45610724D01*
X5681471Y-45554092D01*
X5744531Y-45529888D01*
X5876314Y-45517315D01*
X6079282Y-45457771D01*
X6181990Y-45404873D01*
X6261997Y-45363667D01*
X6262000Y-45363665D01*
X6267328Y-45360921D01*
X6433668Y-45230259D01*
X6437600Y-45225728D01*
X6437603Y-45225725D01*
X6568369Y-45075030D01*
X6572300Y-45070500D01*
X6575300Y-45065314D01*
X6575303Y-45065310D01*
X6675215Y-44892605D01*
X6678221Y-44887409D01*
X6747609Y-44687592D01*
X6748470Y-44681655D01*
X6777100Y-44484199D01*
X6777100Y-44484196D01*
X6777961Y-44478259D01*
X6774339Y-44400000D01*
X7886496Y-44400000D01*
X7887186Y-44406565D01*
X7905495Y-44580762D01*
X7906458Y-44589928D01*
X7965473Y-44771556D01*
X8060960Y-44936944D01*
X8065378Y-44941851D01*
X8065379Y-44941852D01*
X8106244Y-44987237D01*
X8188747Y-45078866D01*
X8343248Y-45191118D01*
X8349276Y-45193802D01*
X8349278Y-45193803D01*
X8439484Y-45233965D01*
X8517712Y-45268794D01*
X8611113Y-45288647D01*
X8698056Y-45307128D01*
X8698061Y-45307128D01*
X8704513Y-45308500D01*
X8757578Y-45308500D01*
X8825699Y-45328502D01*
X8846673Y-45345405D01*
X10027595Y-46526328D01*
X10061621Y-46588640D01*
X10064500Y-46615423D01*
X10064500Y-54499697D01*
X10044498Y-54567818D01*
X10032136Y-54584006D01*
X9960960Y-54663056D01*
X9957659Y-54668774D01*
X9871077Y-54818737D01*
X9819694Y-54867730D01*
X9749981Y-54881166D01*
X9684070Y-54854779D01*
X9668326Y-54840051D01*
X9640863Y-54809550D01*
X9610146Y-54745542D01*
X9608500Y-54725241D01*
X9608500Y-47442157D01*
X9625380Y-47379158D01*
X9638448Y-47356524D01*
X9697463Y-47174896D01*
X9698203Y-47167862D01*
X9716735Y-46991533D01*
X9717425Y-46984968D01*
X9697463Y-46795040D01*
X9638448Y-46613412D01*
X9542961Y-46448024D01*
X9491780Y-46391181D01*
X9419596Y-46311013D01*
X9419595Y-46311012D01*
X9415174Y-46306102D01*
X9316078Y-46234104D01*
X9266015Y-46197731D01*
X9266014Y-46197730D01*
X9260673Y-46193850D01*
X9254645Y-46191166D01*
X9254643Y-46191165D01*
X9092240Y-46118859D01*
X9092239Y-46118859D01*
X9086209Y-46116174D01*
X8981527Y-46093923D01*
X8905865Y-46077840D01*
X8905860Y-46077840D01*
X8899408Y-46076468D01*
X8708434Y-46076468D01*
X8701982Y-46077840D01*
X8701977Y-46077840D01*
X8626315Y-46093923D01*
X8521633Y-46116174D01*
X8515603Y-46118859D01*
X8515602Y-46118859D01*
X8353199Y-46191165D01*
X8353197Y-46191166D01*
X8347169Y-46193850D01*
X8341828Y-46197730D01*
X8341827Y-46197731D01*
X8291764Y-46234104D01*
X8192668Y-46306102D01*
X8188247Y-46311012D01*
X8188246Y-46311013D01*
X8116063Y-46391181D01*
X8064881Y-46448024D01*
X7969394Y-46613412D01*
X7910379Y-46795040D01*
X7890417Y-46984968D01*
X7891107Y-46991533D01*
X7909640Y-47167862D01*
X7910379Y-47174896D01*
X7969394Y-47356524D01*
X8064881Y-47521912D01*
X8069299Y-47526819D01*
X8069300Y-47526820D01*
X8188246Y-47658923D01*
X8192668Y-47663834D01*
X8232788Y-47692983D01*
X8239561Y-47697904D01*
X8282915Y-47754127D01*
X8291500Y-47799840D01*
X8291500Y-54725241D01*
X8271498Y-54793362D01*
X8259136Y-54809551D01*
X8218413Y-54854779D01*
X8210960Y-54863056D01*
X8115473Y-55028444D01*
X8056458Y-55210072D01*
X8036496Y-55400000D01*
X8037186Y-55406565D01*
X8055129Y-55577279D01*
X8056458Y-55589928D01*
X8115473Y-55771556D01*
X8210960Y-55936944D01*
X8215378Y-55941851D01*
X8215379Y-55941852D01*
X8329678Y-56068794D01*
X8338747Y-56078866D01*
X8493248Y-56191118D01*
X8499276Y-56193802D01*
X8499278Y-56193803D01*
X8661681Y-56266109D01*
X8667712Y-56268794D01*
X8761113Y-56288647D01*
X8848056Y-56307128D01*
X8848061Y-56307128D01*
X8854513Y-56308500D01*
X9045487Y-56308500D01*
X9051939Y-56307128D01*
X9051944Y-56307128D01*
X9138887Y-56288647D01*
X9232288Y-56268794D01*
X9238319Y-56266109D01*
X9400722Y-56193803D01*
X9400724Y-56193802D01*
X9406752Y-56191118D01*
X9561253Y-56078866D01*
X9570322Y-56068794D01*
X9684621Y-55941852D01*
X9684622Y-55941851D01*
X9689040Y-55936944D01*
X9759577Y-55814771D01*
X9778923Y-55781263D01*
X9830306Y-55732270D01*
X9900019Y-55718834D01*
X9965930Y-55745221D01*
X9981669Y-55759943D01*
X10088747Y-55878866D01*
X10243248Y-55991118D01*
X10249276Y-55993802D01*
X10249278Y-55993803D01*
X10311943Y-56021703D01*
X10417712Y-56068794D01*
X10483365Y-56082749D01*
X10598056Y-56107128D01*
X10598061Y-56107128D01*
X10604513Y-56108500D01*
X10795487Y-56108500D01*
X10801939Y-56107128D01*
X10801944Y-56107128D01*
X10916635Y-56082749D01*
X10982288Y-56068794D01*
X11088057Y-56021703D01*
X11150722Y-55993803D01*
X11150724Y-55993802D01*
X11156752Y-55991118D01*
X11311253Y-55878866D01*
X11420620Y-55757402D01*
X11434621Y-55741852D01*
X11434622Y-55741851D01*
X11439040Y-55736944D01*
X11534527Y-55571556D01*
X11593542Y-55389928D01*
X11613504Y-55200000D01*
X11595473Y-55028444D01*
X11594232Y-55016635D01*
X11594232Y-55016633D01*
X11593542Y-55010072D01*
X11534527Y-54828444D01*
X11439040Y-54663056D01*
X11367864Y-54584007D01*
X11337146Y-54520000D01*
X11335500Y-54499697D01*
X11335500Y-46766381D01*
X37849160Y-46766381D01*
X37849237Y-46767470D01*
X37851698Y-46771206D01*
X38125632Y-46981404D01*
X38131262Y-46985259D01*
X38431591Y-47167862D01*
X38437593Y-47171080D01*
X38755897Y-47320184D01*
X38762202Y-47322732D01*
X39094743Y-47436587D01*
X39101313Y-47438446D01*
X39444183Y-47515714D01*
X39450912Y-47516853D01*
X39800143Y-47556643D01*
X39806933Y-47557046D01*
X40158419Y-47558886D01*
X40165220Y-47558554D01*
X40514853Y-47522423D01*
X40521581Y-47521357D01*
X40865274Y-47447676D01*
X40871822Y-47445897D01*
X41205549Y-47335527D01*
X41211891Y-47333041D01*
X41531718Y-47187288D01*
X41537777Y-47184121D01*
X41839995Y-47004676D01*
X41845659Y-47000884D01*
X42126732Y-46789849D01*
X42131958Y-46785464D01*
X42141613Y-46776428D01*
X42147540Y-46766381D01*
X126182493Y-46766381D01*
X126182570Y-46767470D01*
X126185031Y-46771206D01*
X126458965Y-46981404D01*
X126464595Y-46985259D01*
X126764924Y-47167862D01*
X126770926Y-47171080D01*
X127089230Y-47320184D01*
X127095535Y-47322732D01*
X127428076Y-47436587D01*
X127434646Y-47438446D01*
X127777516Y-47515714D01*
X127784245Y-47516853D01*
X128133476Y-47556643D01*
X128140266Y-47557046D01*
X128491752Y-47558886D01*
X128498553Y-47558554D01*
X128848186Y-47522423D01*
X128854914Y-47521357D01*
X129198607Y-47447676D01*
X129205155Y-47445897D01*
X129538882Y-47335527D01*
X129545224Y-47333041D01*
X129865051Y-47187288D01*
X129871110Y-47184121D01*
X130173328Y-47004676D01*
X130178992Y-47000884D01*
X130460065Y-46789849D01*
X130465291Y-46785464D01*
X130474946Y-46776428D01*
X130480873Y-46766381D01*
X214515826Y-46766381D01*
X214515903Y-46767470D01*
X214518364Y-46771206D01*
X214792298Y-46981404D01*
X214797928Y-46985259D01*
X215098257Y-47167862D01*
X215104259Y-47171080D01*
X215422563Y-47320184D01*
X215428868Y-47322732D01*
X215761409Y-47436587D01*
X215767979Y-47438446D01*
X216110849Y-47515714D01*
X216117578Y-47516853D01*
X216466809Y-47556643D01*
X216473599Y-47557046D01*
X216825085Y-47558886D01*
X216831886Y-47558554D01*
X217181519Y-47522423D01*
X217188247Y-47521357D01*
X217531940Y-47447676D01*
X217538488Y-47445897D01*
X217872215Y-47335527D01*
X217878557Y-47333041D01*
X218198384Y-47187288D01*
X218204443Y-47184121D01*
X218506661Y-47004676D01*
X218512325Y-47000884D01*
X218793398Y-46789849D01*
X218798624Y-46785464D01*
X218808279Y-46776428D01*
X218814206Y-46766381D01*
X302849160Y-46766381D01*
X302849237Y-46767470D01*
X302851698Y-46771206D01*
X303125632Y-46981404D01*
X303131262Y-46985259D01*
X303431591Y-47167862D01*
X303437593Y-47171080D01*
X303755897Y-47320184D01*
X303762202Y-47322732D01*
X304094743Y-47436587D01*
X304101313Y-47438446D01*
X304444183Y-47515714D01*
X304450912Y-47516853D01*
X304800143Y-47556643D01*
X304806933Y-47557046D01*
X305158419Y-47558886D01*
X305165220Y-47558554D01*
X305514853Y-47522423D01*
X305521581Y-47521357D01*
X305865274Y-47447676D01*
X305871822Y-47445897D01*
X306205549Y-47335527D01*
X306211891Y-47333041D01*
X306531718Y-47187288D01*
X306537777Y-47184121D01*
X306839995Y-47004676D01*
X306845659Y-47000884D01*
X307126732Y-46789849D01*
X307131958Y-46785464D01*
X307141613Y-46776428D01*
X307149682Y-46762750D01*
X307149654Y-46762024D01*
X307144512Y-46753723D01*
X305012810Y-44622020D01*
X304998869Y-44614408D01*
X304997034Y-44614539D01*
X304990420Y-44618790D01*
X302856774Y-46752437D01*
X302849160Y-46766381D01*
X218814206Y-46766381D01*
X218816348Y-46762750D01*
X218816320Y-46762024D01*
X218811178Y-46753723D01*
X216679476Y-44622020D01*
X216665535Y-44614408D01*
X216663700Y-44614539D01*
X216657086Y-44618790D01*
X214523440Y-46752437D01*
X214515826Y-46766381D01*
X130480873Y-46766381D01*
X130483015Y-46762750D01*
X130482987Y-46762024D01*
X130477845Y-46753723D01*
X128346143Y-44622020D01*
X128332202Y-44614408D01*
X128330367Y-44614539D01*
X128323753Y-44618790D01*
X126190107Y-46752437D01*
X126182493Y-46766381D01*
X42147540Y-46766381D01*
X42149682Y-46762750D01*
X42149654Y-46762024D01*
X42144512Y-46753723D01*
X40012810Y-44622020D01*
X39998869Y-44614408D01*
X39997034Y-44614539D01*
X39990420Y-44618790D01*
X37856774Y-46752437D01*
X37849160Y-46766381D01*
X11335500Y-46766381D01*
X11335500Y-46379032D01*
X11336030Y-46367793D01*
X11337709Y-46360281D01*
X11335562Y-46291969D01*
X11335500Y-46288012D01*
X11335500Y-46260017D01*
X11334992Y-46255994D01*
X11334059Y-46244152D01*
X11332914Y-46207720D01*
X11332665Y-46199795D01*
X11326987Y-46180251D01*
X11322977Y-46160888D01*
X11321420Y-46148560D01*
X11321420Y-46148558D01*
X11320427Y-46140701D01*
X11317511Y-46133337D01*
X11317510Y-46133332D01*
X11304093Y-46099444D01*
X11300248Y-46088215D01*
X11290081Y-46053222D01*
X11287869Y-46045607D01*
X11283830Y-46038777D01*
X11277512Y-46028094D01*
X11268812Y-46010336D01*
X11264239Y-45998785D01*
X11264235Y-45998779D01*
X11261319Y-45991412D01*
X11235234Y-45955509D01*
X11228719Y-45945590D01*
X11210174Y-45914232D01*
X11210171Y-45914228D01*
X11206134Y-45907402D01*
X11191750Y-45893018D01*
X11178909Y-45877984D01*
X11171602Y-45867927D01*
X11166942Y-45861513D01*
X11132744Y-45833222D01*
X11123965Y-45825233D01*
X9746790Y-44448057D01*
X9712764Y-44385745D01*
X9710575Y-44372132D01*
X9696880Y-44241832D01*
X36687333Y-44241832D01*
X36705117Y-44592893D01*
X36705827Y-44599649D01*
X36761420Y-44946723D01*
X36762859Y-44953378D01*
X36855608Y-45292410D01*
X36857757Y-45298871D01*
X36986581Y-45625912D01*
X36989412Y-45632095D01*
X37152803Y-45943310D01*
X37156286Y-45949152D01*
X37352330Y-46240896D01*
X37356433Y-46246340D01*
X37476425Y-46388836D01*
X37489164Y-46397279D01*
X37499608Y-46391181D01*
X39627980Y-44262810D01*
X39634357Y-44251131D01*
X40364408Y-44251131D01*
X40364539Y-44252966D01*
X40368790Y-44259580D01*
X42499009Y-46389798D01*
X42512605Y-46397223D01*
X42522218Y-46390522D01*
X42622518Y-46273912D01*
X42626676Y-46268514D01*
X42825762Y-45978840D01*
X42829310Y-45973029D01*
X42995942Y-45663559D01*
X42998849Y-45657381D01*
X43131090Y-45331713D01*
X43133304Y-45325283D01*
X43229598Y-44987237D01*
X43231105Y-44980607D01*
X43290332Y-44634118D01*
X43291112Y-44627378D01*
X43312668Y-44274925D01*
X43312784Y-44271323D01*
X43312853Y-44251819D01*
X43312761Y-44248194D01*
X43312416Y-44241832D01*
X125020666Y-44241832D01*
X125038450Y-44592893D01*
X125039160Y-44599649D01*
X125094753Y-44946723D01*
X125096192Y-44953378D01*
X125188941Y-45292410D01*
X125191090Y-45298871D01*
X125319914Y-45625912D01*
X125322745Y-45632095D01*
X125486136Y-45943310D01*
X125489619Y-45949152D01*
X125685663Y-46240896D01*
X125689766Y-46246340D01*
X125809758Y-46388836D01*
X125822497Y-46397279D01*
X125832941Y-46391181D01*
X127961313Y-44262810D01*
X127967690Y-44251131D01*
X128697741Y-44251131D01*
X128697872Y-44252966D01*
X128702123Y-44259580D01*
X130832342Y-46389798D01*
X130845938Y-46397223D01*
X130855551Y-46390522D01*
X130955851Y-46273912D01*
X130960009Y-46268514D01*
X131159095Y-45978840D01*
X131162643Y-45973029D01*
X131329275Y-45663559D01*
X131332182Y-45657381D01*
X131464423Y-45331713D01*
X131466637Y-45325283D01*
X131562931Y-44987237D01*
X131564438Y-44980607D01*
X131623665Y-44634118D01*
X131624445Y-44627378D01*
X131646001Y-44274925D01*
X131646117Y-44271323D01*
X131646186Y-44251819D01*
X131646094Y-44248194D01*
X131645749Y-44241832D01*
X213353999Y-44241832D01*
X213371783Y-44592893D01*
X213372493Y-44599649D01*
X213428086Y-44946723D01*
X213429525Y-44953378D01*
X213522274Y-45292410D01*
X213524423Y-45298871D01*
X213653247Y-45625912D01*
X213656078Y-45632095D01*
X213819469Y-45943310D01*
X213822952Y-45949152D01*
X214018996Y-46240896D01*
X214023099Y-46246340D01*
X214143091Y-46388836D01*
X214155830Y-46397279D01*
X214166274Y-46391181D01*
X216294646Y-44262810D01*
X216301023Y-44251131D01*
X217031074Y-44251131D01*
X217031205Y-44252966D01*
X217035456Y-44259580D01*
X219165675Y-46389798D01*
X219179271Y-46397223D01*
X219188884Y-46390522D01*
X219289184Y-46273912D01*
X219293342Y-46268514D01*
X219492428Y-45978840D01*
X219495976Y-45973029D01*
X219662608Y-45663559D01*
X219665515Y-45657381D01*
X219797756Y-45331713D01*
X219799970Y-45325283D01*
X219896264Y-44987237D01*
X219897771Y-44980607D01*
X219956998Y-44634118D01*
X219957778Y-44627378D01*
X219979334Y-44274925D01*
X219979450Y-44271323D01*
X219979519Y-44251819D01*
X219979427Y-44248194D01*
X219979082Y-44241832D01*
X301687333Y-44241832D01*
X301705117Y-44592893D01*
X301705827Y-44599649D01*
X301761420Y-44946723D01*
X301762859Y-44953378D01*
X301855608Y-45292410D01*
X301857757Y-45298871D01*
X301986581Y-45625912D01*
X301989412Y-45632095D01*
X302152803Y-45943310D01*
X302156286Y-45949152D01*
X302352330Y-46240896D01*
X302356433Y-46246340D01*
X302476425Y-46388836D01*
X302489164Y-46397279D01*
X302499608Y-46391181D01*
X304627980Y-44262810D01*
X304634357Y-44251131D01*
X305364408Y-44251131D01*
X305364539Y-44252966D01*
X305368790Y-44259580D01*
X307499009Y-46389798D01*
X307512605Y-46397223D01*
X307522218Y-46390522D01*
X307622518Y-46273912D01*
X307626676Y-46268514D01*
X307825762Y-45978840D01*
X307829310Y-45973029D01*
X307995942Y-45663559D01*
X307998849Y-45657381D01*
X308131090Y-45331713D01*
X308133304Y-45325283D01*
X308229598Y-44987237D01*
X308231105Y-44980607D01*
X308290332Y-44634118D01*
X308291112Y-44627378D01*
X308312668Y-44274925D01*
X308312784Y-44271323D01*
X308312853Y-44251819D01*
X308312761Y-44248194D01*
X308293666Y-43895615D01*
X308292931Y-43888849D01*
X308236130Y-43541985D01*
X308234663Y-43535313D01*
X308140736Y-43196627D01*
X308138562Y-43190163D01*
X308008598Y-42863578D01*
X308005742Y-42857398D01*
X307841269Y-42546763D01*
X307837769Y-42540937D01*
X307640697Y-42249862D01*
X307636590Y-42244453D01*
X307523565Y-42111179D01*
X307510740Y-42102743D01*
X307500416Y-42108795D01*
X305372020Y-44237190D01*
X305364408Y-44251131D01*
X304634357Y-44251131D01*
X304635592Y-44248869D01*
X304635461Y-44247034D01*
X304631210Y-44240420D01*
X302500992Y-42110203D01*
X302487455Y-42102811D01*
X302477753Y-42109599D01*
X302370430Y-42235257D01*
X302366296Y-42240664D01*
X302168215Y-42531041D01*
X302164697Y-42536851D01*
X301999134Y-42846922D01*
X301996259Y-42853087D01*
X301865155Y-43179218D01*
X301862962Y-43185658D01*
X301767846Y-43524044D01*
X301766363Y-43530679D01*
X301708350Y-43877354D01*
X301707591Y-43884126D01*
X301687357Y-44235037D01*
X301687333Y-44241832D01*
X219979082Y-44241832D01*
X219960332Y-43895615D01*
X219959597Y-43888849D01*
X219902796Y-43541985D01*
X219901329Y-43535313D01*
X219807402Y-43196627D01*
X219805228Y-43190163D01*
X219675264Y-42863578D01*
X219672408Y-42857398D01*
X219507935Y-42546763D01*
X219504435Y-42540937D01*
X219307363Y-42249862D01*
X219303256Y-42244453D01*
X219190231Y-42111179D01*
X219177406Y-42102743D01*
X219167082Y-42108795D01*
X217038686Y-44237190D01*
X217031074Y-44251131D01*
X216301023Y-44251131D01*
X216302258Y-44248869D01*
X216302127Y-44247034D01*
X216297876Y-44240420D01*
X214167658Y-42110203D01*
X214154121Y-42102811D01*
X214144419Y-42109599D01*
X214037096Y-42235257D01*
X214032962Y-42240664D01*
X213834881Y-42531041D01*
X213831363Y-42536851D01*
X213665800Y-42846922D01*
X213662925Y-42853087D01*
X213531821Y-43179218D01*
X213529628Y-43185658D01*
X213434512Y-43524044D01*
X213433029Y-43530679D01*
X213375016Y-43877354D01*
X213374257Y-43884126D01*
X213354023Y-44235037D01*
X213353999Y-44241832D01*
X131645749Y-44241832D01*
X131626999Y-43895615D01*
X131626264Y-43888849D01*
X131569463Y-43541985D01*
X131567996Y-43535313D01*
X131474069Y-43196627D01*
X131471895Y-43190163D01*
X131341931Y-42863578D01*
X131339075Y-42857398D01*
X131174602Y-42546763D01*
X131171102Y-42540937D01*
X130974030Y-42249862D01*
X130969923Y-42244453D01*
X130856898Y-42111179D01*
X130844073Y-42102743D01*
X130833749Y-42108795D01*
X128705353Y-44237190D01*
X128697741Y-44251131D01*
X127967690Y-44251131D01*
X127968925Y-44248869D01*
X127968794Y-44247034D01*
X127964543Y-44240420D01*
X125834325Y-42110203D01*
X125820788Y-42102811D01*
X125811086Y-42109599D01*
X125703763Y-42235257D01*
X125699629Y-42240664D01*
X125501548Y-42531041D01*
X125498030Y-42536851D01*
X125332467Y-42846922D01*
X125329592Y-42853087D01*
X125198488Y-43179218D01*
X125196295Y-43185658D01*
X125101179Y-43524044D01*
X125099696Y-43530679D01*
X125041683Y-43877354D01*
X125040924Y-43884126D01*
X125020690Y-44235037D01*
X125020666Y-44241832D01*
X43312416Y-44241832D01*
X43293666Y-43895615D01*
X43292931Y-43888849D01*
X43236130Y-43541985D01*
X43234663Y-43535313D01*
X43140736Y-43196627D01*
X43138562Y-43190163D01*
X43008598Y-42863578D01*
X43005742Y-42857398D01*
X42841269Y-42546763D01*
X42837769Y-42540937D01*
X42640697Y-42249862D01*
X42636590Y-42244453D01*
X42523565Y-42111179D01*
X42510740Y-42102743D01*
X42500416Y-42108795D01*
X40372020Y-44237190D01*
X40364408Y-44251131D01*
X39634357Y-44251131D01*
X39635592Y-44248869D01*
X39635461Y-44247034D01*
X39631210Y-44240420D01*
X37500992Y-42110203D01*
X37487455Y-42102811D01*
X37477753Y-42109599D01*
X37370430Y-42235257D01*
X37366296Y-42240664D01*
X37168215Y-42531041D01*
X37164697Y-42536851D01*
X36999134Y-42846922D01*
X36996259Y-42853087D01*
X36865155Y-43179218D01*
X36862962Y-43185658D01*
X36767846Y-43524044D01*
X36766363Y-43530679D01*
X36708350Y-43877354D01*
X36707591Y-43884126D01*
X36687357Y-44235037D01*
X36687333Y-44241832D01*
X9696880Y-44241832D01*
X9694232Y-44216635D01*
X9694232Y-44216633D01*
X9693542Y-44210072D01*
X9634527Y-44028444D01*
X9539040Y-43863056D01*
X9466432Y-43782416D01*
X9415675Y-43726045D01*
X9415674Y-43726044D01*
X9411253Y-43721134D01*
X9268568Y-43617467D01*
X9262094Y-43612763D01*
X9262093Y-43612762D01*
X9256752Y-43608882D01*
X9250724Y-43606198D01*
X9250722Y-43606197D01*
X9088319Y-43533891D01*
X9088318Y-43533891D01*
X9082288Y-43531206D01*
X8988888Y-43511353D01*
X8901944Y-43492872D01*
X8901939Y-43492872D01*
X8895487Y-43491500D01*
X8704513Y-43491500D01*
X8698061Y-43492872D01*
X8698056Y-43492872D01*
X8611112Y-43511353D01*
X8517712Y-43531206D01*
X8511682Y-43533891D01*
X8511681Y-43533891D01*
X8349278Y-43606197D01*
X8349276Y-43606198D01*
X8343248Y-43608882D01*
X8337907Y-43612762D01*
X8337906Y-43612763D01*
X8331432Y-43617467D01*
X8188747Y-43721134D01*
X8184326Y-43726044D01*
X8184325Y-43726045D01*
X8133569Y-43782416D01*
X8060960Y-43863056D01*
X7965473Y-44028444D01*
X7906458Y-44210072D01*
X7905768Y-44216633D01*
X7905768Y-44216635D01*
X7901091Y-44261136D01*
X7886496Y-44400000D01*
X6774339Y-44400000D01*
X6768181Y-44266964D01*
X6718623Y-44061329D01*
X6675273Y-43965985D01*
X6643277Y-43895615D01*
X6631074Y-43868776D01*
X6508694Y-43696252D01*
X6355898Y-43549982D01*
X6178200Y-43435243D01*
X6118102Y-43411023D01*
X5987580Y-43358421D01*
X5987577Y-43358420D01*
X5982011Y-43356177D01*
X5774411Y-43315635D01*
X5768849Y-43315363D01*
X4812902Y-43315363D01*
X4655182Y-43330411D01*
X4452214Y-43389955D01*
X4446887Y-43392699D01*
X4446886Y-43392699D01*
X4269499Y-43484059D01*
X4269496Y-43484061D01*
X4264168Y-43486805D01*
X4097828Y-43617467D01*
X4093896Y-43621998D01*
X4093893Y-43622001D01*
X4025222Y-43701138D01*
X3959196Y-43777226D01*
X3956196Y-43782412D01*
X3956193Y-43782416D01*
X3894620Y-43888849D01*
X3853275Y-43960317D01*
X3783887Y-44160134D01*
X3783026Y-44166069D01*
X3783026Y-44166071D01*
X3769000Y-44262810D01*
X3753535Y-44369467D01*
X2473027Y-44369467D01*
X2468283Y-44266964D01*
X2418725Y-44061329D01*
X2375375Y-43965985D01*
X2343379Y-43895615D01*
X2331176Y-43868776D01*
X2208796Y-43696252D01*
X2056000Y-43549982D01*
X1878302Y-43435243D01*
X1818204Y-43411023D01*
X1687682Y-43358421D01*
X1687679Y-43358420D01*
X1682113Y-43356177D01*
X1474513Y-43315635D01*
X1468951Y-43315363D01*
X713004Y-43315363D01*
X676550Y-43318841D01*
X646467Y-43321711D01*
X576754Y-43308270D01*
X525376Y-43259272D01*
X508500Y-43196281D01*
X508500Y-41050024D01*
X7287568Y-41050024D01*
X7316687Y-41242561D01*
X7318890Y-41248548D01*
X7318890Y-41248549D01*
X7347637Y-41326681D01*
X7383925Y-41425310D01*
X7486538Y-41590806D01*
X7620332Y-41732290D01*
X7779842Y-41843980D01*
X7958553Y-41921315D01*
X8149165Y-41961136D01*
X8155557Y-41961471D01*
X8298537Y-41961471D01*
X8344526Y-41956800D01*
X8437255Y-41947381D01*
X8437257Y-41947381D01*
X8443603Y-41946736D01*
X8629418Y-41888505D01*
X8799730Y-41794099D01*
X8947580Y-41667376D01*
X9066929Y-41513512D01*
X9152902Y-41338792D01*
X9156057Y-41326681D01*
X9200377Y-41156536D01*
X9200377Y-41156533D01*
X9201987Y-41150354D01*
X9207245Y-41050024D01*
X10287568Y-41050024D01*
X10316687Y-41242561D01*
X10318890Y-41248548D01*
X10318890Y-41248549D01*
X10347637Y-41326681D01*
X10383925Y-41425310D01*
X10486538Y-41590806D01*
X10620332Y-41732290D01*
X10779842Y-41843980D01*
X10958553Y-41921315D01*
X11149165Y-41961136D01*
X11155557Y-41961471D01*
X11298537Y-41961471D01*
X11344526Y-41956800D01*
X11437255Y-41947381D01*
X11437257Y-41947381D01*
X11443603Y-41946736D01*
X11629418Y-41888505D01*
X11799730Y-41794099D01*
X11866509Y-41736862D01*
X37849950Y-41736862D01*
X37849986Y-41737704D01*
X37855037Y-41745826D01*
X39987190Y-43877980D01*
X40001131Y-43885592D01*
X40002966Y-43885461D01*
X40009580Y-43881210D01*
X42142798Y-41747991D01*
X42148875Y-41736862D01*
X126183283Y-41736862D01*
X126183319Y-41737704D01*
X126188370Y-41745826D01*
X128320523Y-43877980D01*
X128334464Y-43885592D01*
X128336299Y-43885461D01*
X128342913Y-43881210D01*
X130476131Y-41747991D01*
X130482208Y-41736862D01*
X214516616Y-41736862D01*
X214516652Y-41737704D01*
X214521703Y-41745826D01*
X216653856Y-43877980D01*
X216667797Y-43885592D01*
X216669632Y-43885461D01*
X216676246Y-43881210D01*
X218809464Y-41747991D01*
X218815541Y-41736862D01*
X302849950Y-41736862D01*
X302849986Y-41737704D01*
X302855037Y-41745826D01*
X304987190Y-43877980D01*
X305001131Y-43885592D01*
X305002966Y-43885461D01*
X305009580Y-43881210D01*
X307142798Y-41747991D01*
X307150412Y-41734047D01*
X307150344Y-41733089D01*
X307145836Y-41726272D01*
X307144418Y-41725065D01*
X306864813Y-41512064D01*
X306859187Y-41508240D01*
X306558214Y-41326681D01*
X306552202Y-41323484D01*
X306233370Y-41175487D01*
X306227070Y-41172967D01*
X305894129Y-41060273D01*
X305887551Y-41058437D01*
X305544417Y-40982367D01*
X305537678Y-40981251D01*
X305188310Y-40942680D01*
X305181529Y-40942301D01*
X304830015Y-40941687D01*
X304823242Y-40942042D01*
X304473720Y-40979395D01*
X304467010Y-40980482D01*
X304123586Y-41055361D01*
X304117011Y-41057172D01*
X303783683Y-41168702D01*
X303777361Y-41171205D01*
X303458034Y-41318079D01*
X303451991Y-41321265D01*
X303150401Y-41501763D01*
X303144755Y-41505571D01*
X302864408Y-41717596D01*
X302859211Y-41721987D01*
X302857972Y-41723155D01*
X302849950Y-41736862D01*
X218815541Y-41736862D01*
X218817078Y-41734047D01*
X218817010Y-41733089D01*
X218812502Y-41726272D01*
X218811084Y-41725065D01*
X218531479Y-41512064D01*
X218525853Y-41508240D01*
X218224880Y-41326681D01*
X218218868Y-41323484D01*
X217900036Y-41175487D01*
X217893736Y-41172967D01*
X217560795Y-41060273D01*
X217554217Y-41058437D01*
X217211083Y-40982367D01*
X217204344Y-40981251D01*
X216854976Y-40942680D01*
X216848195Y-40942301D01*
X216496681Y-40941687D01*
X216489908Y-40942042D01*
X216140386Y-40979395D01*
X216133676Y-40980482D01*
X215790252Y-41055361D01*
X215783677Y-41057172D01*
X215450349Y-41168702D01*
X215444027Y-41171205D01*
X215124700Y-41318079D01*
X215118657Y-41321265D01*
X214817067Y-41501763D01*
X214811421Y-41505571D01*
X214531074Y-41717596D01*
X214525877Y-41721987D01*
X214524638Y-41723155D01*
X214516616Y-41736862D01*
X130482208Y-41736862D01*
X130483745Y-41734047D01*
X130483677Y-41733089D01*
X130479169Y-41726272D01*
X130477751Y-41725065D01*
X130198146Y-41512064D01*
X130192520Y-41508240D01*
X129891547Y-41326681D01*
X129885535Y-41323484D01*
X129566703Y-41175487D01*
X129560403Y-41172967D01*
X129227462Y-41060273D01*
X129220884Y-41058437D01*
X128877750Y-40982367D01*
X128871011Y-40981251D01*
X128521643Y-40942680D01*
X128514862Y-40942301D01*
X128163348Y-40941687D01*
X128156575Y-40942042D01*
X127807053Y-40979395D01*
X127800343Y-40980482D01*
X127456919Y-41055361D01*
X127450344Y-41057172D01*
X127117016Y-41168702D01*
X127110694Y-41171205D01*
X126791367Y-41318079D01*
X126785324Y-41321265D01*
X126483734Y-41501763D01*
X126478088Y-41505571D01*
X126197741Y-41717596D01*
X126192544Y-41721987D01*
X126191305Y-41723155D01*
X126183283Y-41736862D01*
X42148875Y-41736862D01*
X42150412Y-41734047D01*
X42150344Y-41733089D01*
X42145836Y-41726272D01*
X42144418Y-41725065D01*
X41864813Y-41512064D01*
X41859187Y-41508240D01*
X41558214Y-41326681D01*
X41552202Y-41323484D01*
X41233370Y-41175487D01*
X41227070Y-41172967D01*
X40894129Y-41060273D01*
X40887551Y-41058437D01*
X40544417Y-40982367D01*
X40537678Y-40981251D01*
X40188310Y-40942680D01*
X40181529Y-40942301D01*
X39830015Y-40941687D01*
X39823242Y-40942042D01*
X39473720Y-40979395D01*
X39467010Y-40980482D01*
X39123586Y-41055361D01*
X39117011Y-41057172D01*
X38783683Y-41168702D01*
X38777361Y-41171205D01*
X38458034Y-41318079D01*
X38451991Y-41321265D01*
X38150401Y-41501763D01*
X38144755Y-41505571D01*
X37864408Y-41717596D01*
X37859211Y-41721987D01*
X37857972Y-41723155D01*
X37849950Y-41736862D01*
X11866509Y-41736862D01*
X11947580Y-41667376D01*
X12066929Y-41513512D01*
X12152902Y-41338792D01*
X12156057Y-41326681D01*
X12200377Y-41156536D01*
X12200377Y-41156533D01*
X12201987Y-41150354D01*
X12210849Y-40981251D01*
X12211844Y-40962275D01*
X12211844Y-40962271D01*
X12212178Y-40955894D01*
X12183059Y-40763357D01*
X12115821Y-40580608D01*
X12013208Y-40415112D01*
X11964119Y-40363201D01*
X11883796Y-40278262D01*
X11879414Y-40273628D01*
X11719904Y-40161938D01*
X11541193Y-40084603D01*
X11350581Y-40044782D01*
X11344189Y-40044447D01*
X11201209Y-40044447D01*
X11188145Y-40045774D01*
X11062491Y-40058537D01*
X11062489Y-40058537D01*
X11056143Y-40059182D01*
X10870328Y-40117413D01*
X10700016Y-40211819D01*
X10552166Y-40338542D01*
X10432817Y-40492406D01*
X10346844Y-40667126D01*
X10345235Y-40673304D01*
X10345234Y-40673306D01*
X10310680Y-40805962D01*
X10297759Y-40855564D01*
X10287568Y-41050024D01*
X9207245Y-41050024D01*
X9210849Y-40981251D01*
X9211844Y-40962275D01*
X9211844Y-40962271D01*
X9212178Y-40955894D01*
X9183059Y-40763357D01*
X9115821Y-40580608D01*
X9013208Y-40415112D01*
X8964119Y-40363201D01*
X8883796Y-40278262D01*
X8879414Y-40273628D01*
X8719904Y-40161938D01*
X8541193Y-40084603D01*
X8350581Y-40044782D01*
X8344189Y-40044447D01*
X8201209Y-40044447D01*
X8188145Y-40045774D01*
X8062491Y-40058537D01*
X8062489Y-40058537D01*
X8056143Y-40059182D01*
X7870328Y-40117413D01*
X7700016Y-40211819D01*
X7552166Y-40338542D01*
X7432817Y-40492406D01*
X7346844Y-40667126D01*
X7345235Y-40673304D01*
X7345234Y-40673306D01*
X7310680Y-40805962D01*
X7297759Y-40855564D01*
X7287568Y-41050024D01*
X508500Y-41050024D01*
X508500Y-39904459D01*
X528502Y-39836338D01*
X582158Y-39789845D01*
X634492Y-39778459D01*
X304950650Y-39758504D01*
X304970042Y-39760004D01*
G37*
%TD.AperFunction*%
%TD*%
M02*
