M48
; DRILL file {KiCad (6.0.9-0)} date 2022 November 17, Thursday 19:12:12
; FORMAT={-:-/ absolute / inch / decimal}
; #@! TF.CreationDate,2022-11-17T19:12:12+01:00
; #@! TF.GenerationSoftware,Kicad,Pcbnew,(6.0.9-0)
; #@! TF.FileFunction,Plated,1,2,PTH
FMAT,2
INCH
; #@! TA.AperFunction,Plated,PTH,ViaDrill
T1C0.0157
; #@! TA.AperFunction,Plated,PTH,ComponentDrill
T2C0.0315
; #@! TA.AperFunction,Plated,PTH,ComponentDrill
T3C0.0520
; #@! TA.AperFunction,Plated,PTH,ComponentDrill
T4C0.1260
%
G90
G05
T1
X0.2795Y-2.7953
X0.2835Y-2.0748
X0.2874Y-1.7638
X0.3189Y-3.3543
X0.3465Y-1.748
X0.3466Y-1.8498
X0.3524Y-2.1811
X0.4213Y-1.748
X0.4213Y-2.1732
X0.4921Y-3.0
X1.0118Y-1.7756
X1.0551Y-2.3307
X12.1142Y-2.937
T3
X0.093Y-2.2539
X0.093Y-2.4508
T4
X1.5748Y-1.7421
X1.5748Y-3.3169
X5.0525Y-1.7421
X5.0525Y-3.3169
X8.5302Y-1.7421
X8.5302Y-3.3169
X12.0079Y-1.7421
X12.0079Y-3.3169
T2
G00X0.0538Y-1.749
M15
G01X0.0302Y-1.749
M16
G05
G00X0.0538Y-2.0895
M15
G01X0.0302Y-2.0895
M16
G05
G00X0.2231Y-1.749
M15
G01X0.1916Y-1.749
M16
G05
G00X0.2231Y-2.0895
M15
G01X0.1916Y-2.0895
M16
G05
T0
M30
